<mxfile host="Electron" agent="Mozilla/5.0 (Windows NT 10.0; Win64; x64) AppleWebKit/537.36 (KHTML, like Gecko) draw.io/24.7.17 Chrome/128.0.6613.36 Electron/32.0.1 Safari/537.36" version="24.7.17">
  <diagram name="Страница — 1" id="-nMWqMCSB1d2r6_AwCoS">
    <mxGraphModel dx="1010" dy="709" grid="0" gridSize="10" guides="1" tooltips="1" connect="1" arrows="1" fold="1" page="1" pageScale="1" pageWidth="3300" pageHeight="4681" math="0" shadow="0">
      <root>
        <mxCell id="0" />
        <mxCell id="1" parent="0" />
        <mxCell id="gzs105k_0Vtbrw21UC8m-5" value="Номера телефонов&amp;nbsp;" style="swimlane;fontStyle=0;childLayout=stackLayout;horizontal=1;startSize=26;fillColor=none;horizontalStack=0;resizeParent=1;resizeParentMax=0;resizeLast=0;collapsible=1;marginBottom=0;whiteSpace=wrap;html=1;" parent="1" vertex="1">
          <mxGeometry x="344" y="336" width="232" height="182" as="geometry" />
        </mxCell>
        <mxCell id="gzs105k_0Vtbrw21UC8m-6" value="# number_id: integer, NOT NULL" style="text;strokeColor=none;fillColor=none;align=left;verticalAlign=top;spacingLeft=4;spacingRight=4;overflow=hidden;rotatable=0;points=[[0,0.5],[1,0.5]];portConstraint=eastwest;whiteSpace=wrap;html=1;" parent="gzs105k_0Vtbrw21UC8m-5" vertex="1">
          <mxGeometry y="26" width="232" height="26" as="geometry" />
        </mxCell>
        <mxCell id="gzs105k_0Vtbrw21UC8m-7" value="* operator_id: integer, NOT NULL" style="text;strokeColor=none;fillColor=none;align=left;verticalAlign=top;spacingLeft=4;spacingRight=4;overflow=hidden;rotatable=0;points=[[0,0.5],[1,0.5]];portConstraint=eastwest;whiteSpace=wrap;html=1;" parent="gzs105k_0Vtbrw21UC8m-5" vertex="1">
          <mxGeometry y="52" width="232" height="26" as="geometry" />
        </mxCell>
        <mxCell id="gzs105k_0Vtbrw21UC8m-8" value="* tarif_id: integer, NOT NULL" style="text;strokeColor=none;fillColor=none;align=left;verticalAlign=top;spacingLeft=4;spacingRight=4;overflow=hidden;rotatable=0;points=[[0,0.5],[1,0.5]];portConstraint=eastwest;whiteSpace=wrap;html=1;" parent="gzs105k_0Vtbrw21UC8m-5" vertex="1">
          <mxGeometry y="78" width="232" height="26" as="geometry" />
        </mxCell>
        <mxCell id="gzs105k_0Vtbrw21UC8m-9" value="* client_id: integer, NOT NULL" style="text;strokeColor=none;fillColor=none;align=left;verticalAlign=top;spacingLeft=4;spacingRight=4;overflow=hidden;rotatable=0;points=[[0,0.5],[1,0.5]];portConstraint=eastwest;whiteSpace=wrap;html=1;" parent="gzs105k_0Vtbrw21UC8m-5" vertex="1">
          <mxGeometry y="104" width="232" height="26" as="geometry" />
        </mxCell>
        <mxCell id="gzs105k_0Vtbrw21UC8m-10" value="number: text" style="text;strokeColor=none;fillColor=none;align=left;verticalAlign=top;spacingLeft=4;spacingRight=4;overflow=hidden;rotatable=0;points=[[0,0.5],[1,0.5]];portConstraint=eastwest;whiteSpace=wrap;html=1;" parent="gzs105k_0Vtbrw21UC8m-5" vertex="1">
          <mxGeometry y="130" width="232" height="26" as="geometry" />
        </mxCell>
        <mxCell id="qbWhs8wLItUreeIWNrHq-3" value="balance: integer, NOT NULL" style="text;strokeColor=none;fillColor=none;align=left;verticalAlign=top;spacingLeft=4;spacingRight=4;overflow=hidden;rotatable=0;points=[[0,0.5],[1,0.5]];portConstraint=eastwest;whiteSpace=wrap;html=1;" vertex="1" parent="gzs105k_0Vtbrw21UC8m-5">
          <mxGeometry y="156" width="232" height="26" as="geometry" />
        </mxCell>
        <mxCell id="gzs105k_0Vtbrw21UC8m-11" value="Платежи" style="swimlane;fontStyle=0;childLayout=stackLayout;horizontal=1;startSize=26;fillColor=none;horizontalStack=0;resizeParent=1;resizeParentMax=0;resizeLast=0;collapsible=1;marginBottom=0;whiteSpace=wrap;html=1;" parent="1" vertex="1">
          <mxGeometry x="649" y="320" width="249" height="130" as="geometry" />
        </mxCell>
        <mxCell id="gzs105k_0Vtbrw21UC8m-12" value="# payment_id: integer, NOT NULL" style="text;strokeColor=none;fillColor=none;align=left;verticalAlign=top;spacingLeft=4;spacingRight=4;overflow=hidden;rotatable=0;points=[[0,0.5],[1,0.5]];portConstraint=eastwest;whiteSpace=wrap;html=1;" parent="gzs105k_0Vtbrw21UC8m-11" vertex="1">
          <mxGeometry y="26" width="249" height="26" as="geometry" />
        </mxCell>
        <mxCell id="gzs105k_0Vtbrw21UC8m-13" value="* operator_id: integer, NOT NULL" style="text;strokeColor=none;fillColor=none;align=left;verticalAlign=top;spacingLeft=4;spacingRight=4;overflow=hidden;rotatable=0;points=[[0,0.5],[1,0.5]];portConstraint=eastwest;whiteSpace=wrap;html=1;" parent="gzs105k_0Vtbrw21UC8m-11" vertex="1">
          <mxGeometry y="52" width="249" height="26" as="geometry" />
        </mxCell>
        <mxCell id="gzs105k_0Vtbrw21UC8m-15" value="date: timestamptz" style="text;strokeColor=none;fillColor=none;align=left;verticalAlign=top;spacingLeft=4;spacingRight=4;overflow=hidden;rotatable=0;points=[[0,0.5],[1,0.5]];portConstraint=eastwest;whiteSpace=wrap;html=1;" parent="gzs105k_0Vtbrw21UC8m-11" vertex="1">
          <mxGeometry y="78" width="249" height="26" as="geometry" />
        </mxCell>
        <mxCell id="gzs105k_0Vtbrw21UC8m-14" value="sum: numeric(10,2), &amp;gt; 0&amp;nbsp;" style="text;strokeColor=none;fillColor=none;align=left;verticalAlign=top;spacingLeft=4;spacingRight=4;overflow=hidden;rotatable=0;points=[[0,0.5],[1,0.5]];portConstraint=eastwest;whiteSpace=wrap;html=1;" parent="gzs105k_0Vtbrw21UC8m-11" vertex="1">
          <mxGeometry y="104" width="249" height="26" as="geometry" />
        </mxCell>
        <mxCell id="gzs105k_0Vtbrw21UC8m-16" value="Роли" style="swimlane;fontStyle=0;childLayout=stackLayout;horizontal=1;startSize=26;fillColor=#1ba1e2;horizontalStack=0;resizeParent=1;resizeParentMax=0;resizeLast=0;collapsible=1;marginBottom=0;whiteSpace=wrap;html=1;fontColor=#ffffff;strokeColor=#006EAF;" parent="1" vertex="1">
          <mxGeometry x="1214.5" y="49" width="199" height="78" as="geometry" />
        </mxCell>
        <mxCell id="gzs105k_0Vtbrw21UC8m-17" value="# role_id: integer, NOT NULL" style="text;strokeColor=none;fillColor=none;align=left;verticalAlign=top;spacingLeft=4;spacingRight=4;overflow=hidden;rotatable=0;points=[[0,0.5],[1,0.5]];portConstraint=eastwest;whiteSpace=wrap;html=1;" parent="gzs105k_0Vtbrw21UC8m-16" vertex="1">
          <mxGeometry y="26" width="199" height="26" as="geometry" />
        </mxCell>
        <mxCell id="gzs105k_0Vtbrw21UC8m-22" value="role_name: text" style="text;strokeColor=none;fillColor=none;align=left;verticalAlign=top;spacingLeft=4;spacingRight=4;overflow=hidden;rotatable=0;points=[[0,0.5],[1,0.5]];portConstraint=eastwest;whiteSpace=wrap;html=1;" parent="gzs105k_0Vtbrw21UC8m-16" vertex="1">
          <mxGeometry y="52" width="199" height="26" as="geometry" />
        </mxCell>
        <mxCell id="gzs105k_0Vtbrw21UC8m-32" value="Тарифы" style="swimlane;fontStyle=0;childLayout=stackLayout;horizontal=1;startSize=26;fillColor=none;horizontalStack=0;resizeParent=1;resizeParentMax=0;resizeLast=0;collapsible=1;marginBottom=0;whiteSpace=wrap;html=1;" parent="1" vertex="1">
          <mxGeometry x="33" y="270" width="236" height="182" as="geometry" />
        </mxCell>
        <mxCell id="gzs105k_0Vtbrw21UC8m-33" value="# tarif_id: integer, NOT NULL" style="text;strokeColor=none;fillColor=none;align=left;verticalAlign=top;spacingLeft=4;spacingRight=4;overflow=hidden;rotatable=0;points=[[0,0.5],[1,0.5]];portConstraint=eastwest;whiteSpace=wrap;html=1;" parent="gzs105k_0Vtbrw21UC8m-32" vertex="1">
          <mxGeometry y="26" width="236" height="26" as="geometry" />
        </mxCell>
        <mxCell id="gzs105k_0Vtbrw21UC8m-34" value="* operator_id: integer, NOT NULL" style="text;strokeColor=none;fillColor=none;align=left;verticalAlign=top;spacingLeft=4;spacingRight=4;overflow=hidden;rotatable=0;points=[[0,0.5],[1,0.5]];portConstraint=eastwest;whiteSpace=wrap;html=1;" parent="gzs105k_0Vtbrw21UC8m-32" vertex="1">
          <mxGeometry y="52" width="236" height="26" as="geometry" />
        </mxCell>
        <mxCell id="gzs105k_0Vtbrw21UC8m-35" value="price: integer, &amp;gt; 0" style="text;strokeColor=none;fillColor=none;align=left;verticalAlign=top;spacingLeft=4;spacingRight=4;overflow=hidden;rotatable=0;points=[[0,0.5],[1,0.5]];portConstraint=eastwest;whiteSpace=wrap;html=1;" parent="gzs105k_0Vtbrw21UC8m-32" vertex="1">
          <mxGeometry y="78" width="236" height="26" as="geometry" />
        </mxCell>
        <mxCell id="gzs105k_0Vtbrw21UC8m-36" value="begin_date: timestamptz, NOT NULL" style="text;strokeColor=none;fillColor=none;align=left;verticalAlign=top;spacingLeft=4;spacingRight=4;overflow=hidden;rotatable=0;points=[[0,0.5],[1,0.5]];portConstraint=eastwest;whiteSpace=wrap;html=1;" parent="gzs105k_0Vtbrw21UC8m-32" vertex="1">
          <mxGeometry y="104" width="236" height="26" as="geometry" />
        </mxCell>
        <mxCell id="gzs105k_0Vtbrw21UC8m-37" value="end_date: timestamptz, &amp;gt; begin_date" style="text;strokeColor=none;fillColor=none;align=left;verticalAlign=top;spacingLeft=4;spacingRight=4;overflow=hidden;rotatable=0;points=[[0,0.5],[1,0.5]];portConstraint=eastwest;whiteSpace=wrap;html=1;" parent="gzs105k_0Vtbrw21UC8m-32" vertex="1">
          <mxGeometry y="130" width="236" height="26" as="geometry" />
        </mxCell>
        <mxCell id="gzs105k_0Vtbrw21UC8m-38" value="name: text" style="text;strokeColor=none;fillColor=none;align=left;verticalAlign=top;spacingLeft=4;spacingRight=4;overflow=hidden;rotatable=0;points=[[0,0.5],[1,0.5]];portConstraint=eastwest;whiteSpace=wrap;html=1;" parent="gzs105k_0Vtbrw21UC8m-32" vertex="1">
          <mxGeometry y="156" width="236" height="26" as="geometry" />
        </mxCell>
        <mxCell id="Hw7SRDfbB86I9_vCCGcW-1" value="Операторы" style="swimlane;fontStyle=0;childLayout=stackLayout;horizontal=1;startSize=26;fillColor=none;horizontalStack=0;resizeParent=1;resizeParentMax=0;resizeLast=0;collapsible=1;marginBottom=0;whiteSpace=wrap;html=1;" parent="1" vertex="1">
          <mxGeometry x="1191.5" y="400" width="219" height="104" as="geometry" />
        </mxCell>
        <mxCell id="Hw7SRDfbB86I9_vCCGcW-2" value="# operator_id: integer, NOT NULL" style="text;strokeColor=none;fillColor=none;align=left;verticalAlign=top;spacingLeft=4;spacingRight=4;overflow=hidden;rotatable=0;points=[[0,0.5],[1,0.5]];portConstraint=eastwest;whiteSpace=wrap;html=1;" parent="Hw7SRDfbB86I9_vCCGcW-1" vertex="1">
          <mxGeometry y="26" width="219" height="26" as="geometry" />
        </mxCell>
        <mxCell id="Hw7SRDfbB86I9_vCCGcW-3" value="operator_name: text" style="text;strokeColor=none;fillColor=none;align=left;verticalAlign=top;spacingLeft=4;spacingRight=4;overflow=hidden;rotatable=0;points=[[0,0.5],[1,0.5]];portConstraint=eastwest;whiteSpace=wrap;html=1;" parent="Hw7SRDfbB86I9_vCCGcW-1" vertex="1">
          <mxGeometry y="52" width="219" height="26" as="geometry" />
        </mxCell>
        <mxCell id="Hw7SRDfbB86I9_vCCGcW-113" value="* id_contact_data: integer, NOT NULL" style="text;strokeColor=none;fillColor=none;align=left;verticalAlign=top;spacingLeft=4;spacingRight=4;overflow=hidden;rotatable=0;points=[[0,0.5],[1,0.5]];portConstraint=eastwest;whiteSpace=wrap;html=1;" parent="Hw7SRDfbB86I9_vCCGcW-1" vertex="1">
          <mxGeometry y="78" width="219" height="26" as="geometry" />
        </mxCell>
        <mxCell id="Hw7SRDfbB86I9_vCCGcW-4" value="Номера телефонов&amp;nbsp;" style="swimlane;fontStyle=0;childLayout=stackLayout;horizontal=1;startSize=26;fillColor=none;horizontalStack=0;resizeParent=1;resizeParentMax=0;resizeLast=0;collapsible=1;marginBottom=0;whiteSpace=wrap;html=1;" parent="1" vertex="1">
          <mxGeometry x="1523.25" y="266" width="218" height="156" as="geometry" />
        </mxCell>
        <mxCell id="Hw7SRDfbB86I9_vCCGcW-5" value="# number_id: integer, NOT NULL" style="text;strokeColor=none;fillColor=none;align=left;verticalAlign=top;spacingLeft=4;spacingRight=4;overflow=hidden;rotatable=0;points=[[0,0.5],[1,0.5]];portConstraint=eastwest;whiteSpace=wrap;html=1;" parent="Hw7SRDfbB86I9_vCCGcW-4" vertex="1">
          <mxGeometry y="26" width="218" height="26" as="geometry" />
        </mxCell>
        <mxCell id="Hw7SRDfbB86I9_vCCGcW-7" value="* tarif_id: integer, NOT NULL" style="text;strokeColor=none;fillColor=none;align=left;verticalAlign=top;spacingLeft=4;spacingRight=4;overflow=hidden;rotatable=0;points=[[0,0.5],[1,0.5]];portConstraint=eastwest;whiteSpace=wrap;html=1;" parent="Hw7SRDfbB86I9_vCCGcW-4" vertex="1">
          <mxGeometry y="52" width="218" height="26" as="geometry" />
        </mxCell>
        <mxCell id="Hw7SRDfbB86I9_vCCGcW-8" value="* user_id: integer, NOT NULL" style="text;strokeColor=none;fillColor=none;align=left;verticalAlign=top;spacingLeft=4;spacingRight=4;overflow=hidden;rotatable=0;points=[[0,0.5],[1,0.5]];portConstraint=eastwest;whiteSpace=wrap;html=1;" parent="Hw7SRDfbB86I9_vCCGcW-4" vertex="1">
          <mxGeometry y="78" width="218" height="26" as="geometry" />
        </mxCell>
        <mxCell id="Hw7SRDfbB86I9_vCCGcW-126" value="balance: integer, NOT NULL" style="text;strokeColor=none;fillColor=none;align=left;verticalAlign=top;spacingLeft=4;spacingRight=4;overflow=hidden;rotatable=0;points=[[0,0.5],[1,0.5]];portConstraint=eastwest;whiteSpace=wrap;html=1;" parent="Hw7SRDfbB86I9_vCCGcW-4" vertex="1">
          <mxGeometry y="104" width="218" height="26" as="geometry" />
        </mxCell>
        <mxCell id="Hw7SRDfbB86I9_vCCGcW-9" value="number: text" style="text;strokeColor=none;fillColor=none;align=left;verticalAlign=top;spacingLeft=4;spacingRight=4;overflow=hidden;rotatable=0;points=[[0,0.5],[1,0.5]];portConstraint=eastwest;whiteSpace=wrap;html=1;" parent="Hw7SRDfbB86I9_vCCGcW-4" vertex="1">
          <mxGeometry y="130" width="218" height="26" as="geometry" />
        </mxCell>
        <mxCell id="Hw7SRDfbB86I9_vCCGcW-10" value="Платежи" style="swimlane;fontStyle=0;childLayout=stackLayout;horizontal=1;startSize=26;fillColor=none;horizontalStack=0;resizeParent=1;resizeParentMax=0;resizeLast=0;collapsible=1;marginBottom=0;whiteSpace=wrap;html=1;" parent="1" vertex="1">
          <mxGeometry x="1827" y="342" width="200" height="130" as="geometry" />
        </mxCell>
        <mxCell id="Hw7SRDfbB86I9_vCCGcW-11" value="# payment_id: integer, NOT NULL" style="text;strokeColor=none;fillColor=none;align=left;verticalAlign=top;spacingLeft=4;spacingRight=4;overflow=hidden;rotatable=0;points=[[0,0.5],[1,0.5]];portConstraint=eastwest;whiteSpace=wrap;html=1;" parent="Hw7SRDfbB86I9_vCCGcW-10" vertex="1">
          <mxGeometry y="26" width="200" height="26" as="geometry" />
        </mxCell>
        <mxCell id="Hw7SRDfbB86I9_vCCGcW-12" value="* operator_id: integer, NOT NULL" style="text;strokeColor=none;fillColor=none;align=left;verticalAlign=top;spacingLeft=4;spacingRight=4;overflow=hidden;rotatable=0;points=[[0,0.5],[1,0.5]];portConstraint=eastwest;whiteSpace=wrap;html=1;" parent="Hw7SRDfbB86I9_vCCGcW-10" vertex="1">
          <mxGeometry y="52" width="200" height="26" as="geometry" />
        </mxCell>
        <mxCell id="Hw7SRDfbB86I9_vCCGcW-13" value="date: timestamptz" style="text;strokeColor=none;fillColor=none;align=left;verticalAlign=top;spacingLeft=4;spacingRight=4;overflow=hidden;rotatable=0;points=[[0,0.5],[1,0.5]];portConstraint=eastwest;whiteSpace=wrap;html=1;" parent="Hw7SRDfbB86I9_vCCGcW-10" vertex="1">
          <mxGeometry y="78" width="200" height="26" as="geometry" />
        </mxCell>
        <mxCell id="Hw7SRDfbB86I9_vCCGcW-14" value="sum: numeric(10,2),&amp;nbsp; &amp;gt; 0&amp;nbsp;" style="text;strokeColor=none;fillColor=none;align=left;verticalAlign=top;spacingLeft=4;spacingRight=4;overflow=hidden;rotatable=0;points=[[0,0.5],[1,0.5]];portConstraint=eastwest;whiteSpace=wrap;html=1;" parent="Hw7SRDfbB86I9_vCCGcW-10" vertex="1">
          <mxGeometry y="104" width="200" height="26" as="geometry" />
        </mxCell>
        <mxCell id="Hw7SRDfbB86I9_vCCGcW-27" value="Тариф" style="swimlane;fontStyle=0;childLayout=stackLayout;horizontal=1;startSize=26;fillColor=none;horizontalStack=0;resizeParent=1;resizeParentMax=0;resizeLast=0;collapsible=1;marginBottom=0;whiteSpace=wrap;html=1;" parent="1" vertex="1">
          <mxGeometry x="1197.5" y="164" width="213" height="182" as="geometry" />
        </mxCell>
        <mxCell id="Hw7SRDfbB86I9_vCCGcW-28" value="# tarif_id: integer, NOT NULL" style="text;strokeColor=none;fillColor=none;align=left;verticalAlign=top;spacingLeft=4;spacingRight=4;overflow=hidden;rotatable=0;points=[[0,0.5],[1,0.5]];portConstraint=eastwest;whiteSpace=wrap;html=1;" parent="Hw7SRDfbB86I9_vCCGcW-27" vertex="1">
          <mxGeometry y="26" width="213" height="26" as="geometry" />
        </mxCell>
        <mxCell id="Hw7SRDfbB86I9_vCCGcW-29" value="* operator_id: integer, NOT NULL" style="text;strokeColor=none;fillColor=none;align=left;verticalAlign=top;spacingLeft=4;spacingRight=4;overflow=hidden;rotatable=0;points=[[0,0.5],[1,0.5]];portConstraint=eastwest;whiteSpace=wrap;html=1;" parent="Hw7SRDfbB86I9_vCCGcW-27" vertex="1">
          <mxGeometry y="52" width="213" height="26" as="geometry" />
        </mxCell>
        <mxCell id="Hw7SRDfbB86I9_vCCGcW-30" value="price: integer,&amp;nbsp; &amp;gt; 0" style="text;strokeColor=none;fillColor=none;align=left;verticalAlign=top;spacingLeft=4;spacingRight=4;overflow=hidden;rotatable=0;points=[[0,0.5],[1,0.5]];portConstraint=eastwest;whiteSpace=wrap;html=1;" parent="Hw7SRDfbB86I9_vCCGcW-27" vertex="1">
          <mxGeometry y="78" width="213" height="26" as="geometry" />
        </mxCell>
        <mxCell id="Hw7SRDfbB86I9_vCCGcW-31" value="begin_date: timestamptz, NOT NULL" style="text;strokeColor=none;fillColor=none;align=left;verticalAlign=top;spacingLeft=4;spacingRight=4;overflow=hidden;rotatable=0;points=[[0,0.5],[1,0.5]];portConstraint=eastwest;whiteSpace=wrap;html=1;" parent="Hw7SRDfbB86I9_vCCGcW-27" vertex="1">
          <mxGeometry y="104" width="213" height="26" as="geometry" />
        </mxCell>
        <mxCell id="Hw7SRDfbB86I9_vCCGcW-32" value="end_date: timestamptz, &amp;gt; begin_date" style="text;strokeColor=none;fillColor=none;align=left;verticalAlign=top;spacingLeft=4;spacingRight=4;overflow=hidden;rotatable=0;points=[[0,0.5],[1,0.5]];portConstraint=eastwest;whiteSpace=wrap;html=1;" parent="Hw7SRDfbB86I9_vCCGcW-27" vertex="1">
          <mxGeometry y="130" width="213" height="26" as="geometry" />
        </mxCell>
        <mxCell id="Hw7SRDfbB86I9_vCCGcW-33" value="name: text" style="text;strokeColor=none;fillColor=none;align=left;verticalAlign=top;spacingLeft=4;spacingRight=4;overflow=hidden;rotatable=0;points=[[0,0.5],[1,0.5]];portConstraint=eastwest;whiteSpace=wrap;html=1;" parent="Hw7SRDfbB86I9_vCCGcW-27" vertex="1">
          <mxGeometry y="156" width="213" height="26" as="geometry" />
        </mxCell>
        <mxCell id="Hw7SRDfbB86I9_vCCGcW-89" value="Пользователь" style="swimlane;fontStyle=0;childLayout=stackLayout;horizontal=1;startSize=26;fillColor=none;horizontalStack=0;resizeParent=1;resizeParentMax=0;resizeLast=0;collapsible=1;marginBottom=0;whiteSpace=wrap;html=1;" parent="1" vertex="1">
          <mxGeometry x="1500.5" y="48" width="223.5" height="104" as="geometry" />
        </mxCell>
        <mxCell id="Hw7SRDfbB86I9_vCCGcW-90" value="# user_id: integer, NOT NULL" style="text;strokeColor=none;fillColor=none;align=left;verticalAlign=top;spacingLeft=4;spacingRight=4;overflow=hidden;rotatable=0;points=[[0,0.5],[1,0.5]];portConstraint=eastwest;whiteSpace=wrap;html=1;" parent="Hw7SRDfbB86I9_vCCGcW-89" vertex="1">
          <mxGeometry y="26" width="223.5" height="26" as="geometry" />
        </mxCell>
        <mxCell id="Hw7SRDfbB86I9_vCCGcW-91" value="* user_data_id: integer, NOT NULL" style="text;strokeColor=none;fillColor=none;align=left;verticalAlign=top;spacingLeft=4;spacingRight=4;overflow=hidden;rotatable=0;points=[[0,0.5],[1,0.5]];portConstraint=eastwest;whiteSpace=wrap;html=1;" parent="Hw7SRDfbB86I9_vCCGcW-89" vertex="1">
          <mxGeometry y="52" width="223.5" height="26" as="geometry" />
        </mxCell>
        <mxCell id="qbWhs8wLItUreeIWNrHq-10" value="* role_id: integer, NOT NULL" style="text;strokeColor=none;fillColor=none;align=left;verticalAlign=top;spacingLeft=4;spacingRight=4;overflow=hidden;rotatable=0;points=[[0,0.5],[1,0.5]];portConstraint=eastwest;whiteSpace=wrap;html=1;" vertex="1" parent="Hw7SRDfbB86I9_vCCGcW-89">
          <mxGeometry y="78" width="223.5" height="26" as="geometry" />
        </mxCell>
        <mxCell id="Hw7SRDfbB86I9_vCCGcW-129" value="" style="edgeStyle=entityRelationEdgeStyle;fontSize=12;html=1;endArrow=ERmandOne;startArrow=ERmandOne;rounded=1;entryX=1;entryY=0.5;entryDx=0;entryDy=0;exitX=0;exitY=0.5;exitDx=0;exitDy=0;fillColor=#e51400;strokeColor=#B20000;curved=0;" parent="1" source="Hw7SRDfbB86I9_vCCGcW-7" target="Hw7SRDfbB86I9_vCCGcW-33" edge="1">
          <mxGeometry width="100" height="100" relative="1" as="geometry">
            <mxPoint x="1467" y="328" as="sourcePoint" />
            <mxPoint x="1395" y="376" as="targetPoint" />
          </mxGeometry>
        </mxCell>
        <mxCell id="Hw7SRDfbB86I9_vCCGcW-130" value="" style="edgeStyle=entityRelationEdgeStyle;fontSize=12;html=1;endArrow=ERoneToMany;rounded=1;entryX=0;entryY=0.5;entryDx=0;entryDy=0;exitX=1;exitY=0.5;exitDx=0;exitDy=0;fillColor=#6a00ff;strokeColor=#3700CC;curved=0;" parent="1" source="Hw7SRDfbB86I9_vCCGcW-2" target="Hw7SRDfbB86I9_vCCGcW-90" edge="1">
          <mxGeometry width="100" height="100" relative="1" as="geometry">
            <mxPoint x="1455" y="501" as="sourcePoint" />
            <mxPoint x="1389" y="125" as="targetPoint" />
          </mxGeometry>
        </mxCell>
        <mxCell id="Hw7SRDfbB86I9_vCCGcW-134" value="" style="edgeStyle=entityRelationEdgeStyle;fontSize=12;html=1;endArrow=ERoneToMany;rounded=1;entryX=0;entryY=0.5;entryDx=0;entryDy=0;curved=0;" parent="1" source="Hw7SRDfbB86I9_vCCGcW-3" target="Hw7SRDfbB86I9_vCCGcW-14" edge="1">
          <mxGeometry width="100" height="100" relative="1" as="geometry">
            <mxPoint x="1412" y="485" as="sourcePoint" />
            <mxPoint x="1918" y="584" as="targetPoint" />
          </mxGeometry>
        </mxCell>
        <mxCell id="Hw7SRDfbB86I9_vCCGcW-135" value="" style="edgeStyle=entityRelationEdgeStyle;fontSize=12;html=1;endArrow=ERoneToMany;rounded=1;fillColor=#b0e3e6;strokeColor=#0e8088;curved=0;exitX=1;exitY=0.5;exitDx=0;exitDy=0;" parent="1" source="Hw7SRDfbB86I9_vCCGcW-90" target="Hw7SRDfbB86I9_vCCGcW-4" edge="1">
          <mxGeometry width="100" height="100" relative="1" as="geometry">
            <mxPoint x="1764.0000000000005" y="147.5" as="sourcePoint" />
            <mxPoint x="2073" y="107" as="targetPoint" />
            <Array as="points">
              <mxPoint x="1773" y="227" />
              <mxPoint x="1834" y="218" />
              <mxPoint x="1754" y="277" />
            </Array>
          </mxGeometry>
        </mxCell>
        <mxCell id="Hw7SRDfbB86I9_vCCGcW-136" value="" style="edgeStyle=entityRelationEdgeStyle;fontSize=12;html=1;endArrow=ERoneToMany;rounded=1;entryX=1;entryY=0.5;entryDx=0;entryDy=0;exitX=0;exitY=0.5;exitDx=0;exitDy=0;curved=0;" parent="1" source="Hw7SRDfbB86I9_vCCGcW-90" target="Hw7SRDfbB86I9_vCCGcW-28" edge="1">
          <mxGeometry width="100" height="100" relative="1" as="geometry">
            <mxPoint x="1233" y="81" as="sourcePoint" />
            <mxPoint x="1333" y="-19" as="targetPoint" />
          </mxGeometry>
        </mxCell>
        <mxCell id="Hw7SRDfbB86I9_vCCGcW-138" value="3 форма" style="text;html=1;align=center;verticalAlign=middle;resizable=0;points=[];autosize=1;strokeColor=none;fillColor=none;" parent="1" vertex="1">
          <mxGeometry x="1197.5" y="138" width="66" height="26" as="geometry" />
        </mxCell>
        <mxCell id="Hw7SRDfbB86I9_vCCGcW-139" value="3 форма" style="text;html=1;align=center;verticalAlign=middle;resizable=0;points=[];autosize=1;strokeColor=none;fillColor=none;" parent="1" vertex="1">
          <mxGeometry x="1827" y="319" width="66" height="26" as="geometry" />
        </mxCell>
        <mxCell id="Hw7SRDfbB86I9_vCCGcW-141" value="3 форма" style="text;html=1;align=center;verticalAlign=middle;resizable=0;points=[];autosize=1;strokeColor=none;fillColor=none;" parent="1" vertex="1">
          <mxGeometry x="1522.75" y="240" width="66" height="26" as="geometry" />
        </mxCell>
        <mxCell id="qbWhs8wLItUreeIWNrHq-2" value="3 форма" style="text;html=1;align=center;verticalAlign=middle;resizable=0;points=[];autosize=1;strokeColor=none;fillColor=none;" vertex="1" parent="1">
          <mxGeometry x="33" y="244" width="66" height="26" as="geometry" />
        </mxCell>
        <mxCell id="qbWhs8wLItUreeIWNrHq-8" value="" style="edgeStyle=entityRelationEdgeStyle;fontSize=12;html=1;endArrow=ERmandOne;startArrow=ERmandOne;rounded=1;entryX=1;entryY=0.5;entryDx=0;entryDy=0;fillColor=#1ba1e2;strokeColor=#006EAF;exitX=0;exitY=0.5;exitDx=0;exitDy=0;curved=0;" edge="1" parent="1" source="qbWhs8wLItUreeIWNrHq-10" target="gzs105k_0Vtbrw21UC8m-17">
          <mxGeometry width="100" height="100" relative="1" as="geometry">
            <mxPoint x="1429" y="37" as="sourcePoint" />
            <mxPoint x="1362" y="342" as="targetPoint" />
          </mxGeometry>
        </mxCell>
        <mxCell id="qbWhs8wLItUreeIWNrHq-11" value="3 форма" style="text;html=1;align=center;verticalAlign=middle;resizable=0;points=[];autosize=1;strokeColor=none;fillColor=none;" vertex="1" parent="1">
          <mxGeometry x="1214.5" y="28" width="66" height="26" as="geometry" />
        </mxCell>
        <mxCell id="qbWhs8wLItUreeIWNrHq-14" value="Юр. Лица" style="swimlane;fontStyle=0;childLayout=stackLayout;horizontal=1;startSize=26;fillColor=#60a917;horizontalStack=0;resizeParent=1;resizeParentMax=0;resizeLast=0;collapsible=1;marginBottom=0;whiteSpace=wrap;html=1;fontColor=#ffffff;strokeColor=#2D7600;" vertex="1" parent="1">
          <mxGeometry x="1521" y="488" width="219" height="156" as="geometry" />
        </mxCell>
        <mxCell id="qbWhs8wLItUreeIWNrHq-15" value="# id_contact_data: integer, NOT NULL" style="text;strokeColor=none;fillColor=none;align=left;verticalAlign=top;spacingLeft=4;spacingRight=4;overflow=hidden;rotatable=0;points=[[0,0.5],[1,0.5]];portConstraint=eastwest;whiteSpace=wrap;html=1;" vertex="1" parent="qbWhs8wLItUreeIWNrHq-14">
          <mxGeometry y="26" width="219" height="26" as="geometry" />
        </mxCell>
        <mxCell id="qbWhs8wLItUreeIWNrHq-16" value="name: text" style="text;strokeColor=none;fillColor=none;align=left;verticalAlign=top;spacingLeft=4;spacingRight=4;overflow=hidden;rotatable=0;points=[[0,0.5],[1,0.5]];portConstraint=eastwest;whiteSpace=wrap;html=1;" vertex="1" parent="qbWhs8wLItUreeIWNrHq-14">
          <mxGeometry y="52" width="219" height="26" as="geometry" />
        </mxCell>
        <mxCell id="qbWhs8wLItUreeIWNrHq-20" value="adress: text" style="text;strokeColor=none;fillColor=none;align=left;verticalAlign=top;spacingLeft=4;spacingRight=4;overflow=hidden;rotatable=0;points=[[0,0.5],[1,0.5]];portConstraint=eastwest;whiteSpace=wrap;html=1;" vertex="1" parent="qbWhs8wLItUreeIWNrHq-14">
          <mxGeometry y="78" width="219" height="26" as="geometry" />
        </mxCell>
        <mxCell id="qbWhs8wLItUreeIWNrHq-17" value="phone_number: text" style="text;strokeColor=none;fillColor=none;align=left;verticalAlign=top;spacingLeft=4;spacingRight=4;overflow=hidden;rotatable=0;points=[[0,0.5],[1,0.5]];portConstraint=eastwest;whiteSpace=wrap;html=1;" vertex="1" parent="qbWhs8wLItUreeIWNrHq-14">
          <mxGeometry y="104" width="219" height="26" as="geometry" />
        </mxCell>
        <mxCell id="qbWhs8wLItUreeIWNrHq-18" value="mail: text" style="text;strokeColor=none;fillColor=none;align=left;verticalAlign=top;spacingLeft=4;spacingRight=4;overflow=hidden;rotatable=0;points=[[0,0.5],[1,0.5]];portConstraint=eastwest;whiteSpace=wrap;html=1;" vertex="1" parent="qbWhs8wLItUreeIWNrHq-14">
          <mxGeometry y="130" width="219" height="26" as="geometry" />
        </mxCell>
        <mxCell id="qbWhs8wLItUreeIWNrHq-22" value="" style="edgeStyle=entityRelationEdgeStyle;fontSize=12;html=1;endArrow=ERmandOne;startArrow=ERmandOne;rounded=1;fillColor=#60a917;strokeColor=#2D7600;exitX=0;exitY=0.5;exitDx=0;exitDy=0;curved=0;entryX=1;entryY=0.5;entryDx=0;entryDy=0;" edge="1" parent="1" source="qbWhs8wLItUreeIWNrHq-15" target="Hw7SRDfbB86I9_vCCGcW-113">
          <mxGeometry width="100" height="100" relative="1" as="geometry">
            <mxPoint x="1514" y="516" as="sourcePoint" />
            <mxPoint x="1281" y="556" as="targetPoint" />
          </mxGeometry>
        </mxCell>
        <mxCell id="qbWhs8wLItUreeIWNrHq-30" value="3 форма" style="text;html=1;align=center;verticalAlign=middle;resizable=0;points=[];autosize=1;strokeColor=none;fillColor=none;" vertex="1" parent="1">
          <mxGeometry x="1521" y="462" width="66" height="26" as="geometry" />
        </mxCell>
        <mxCell id="qbWhs8wLItUreeIWNrHq-31" value="3 форма" style="text;html=1;align=center;verticalAlign=middle;resizable=0;points=[];autosize=1;strokeColor=none;fillColor=none;" vertex="1" parent="1">
          <mxGeometry x="1500.5" y="22" width="66" height="26" as="geometry" />
        </mxCell>
        <mxCell id="qbWhs8wLItUreeIWNrHq-32" value="3 форма" style="text;html=1;align=center;verticalAlign=middle;resizable=0;points=[];autosize=1;strokeColor=none;fillColor=none;" vertex="1" parent="1">
          <mxGeometry x="1181" y="376" width="66" height="26" as="geometry" />
        </mxCell>
        <mxCell id="qbWhs8wLItUreeIWNrHq-33" value="" style="edgeStyle=entityRelationEdgeStyle;fontSize=12;html=1;endArrow=ERoneToMany;rounded=1;fillColor=#60a917;strokeColor=#2D7600;curved=0;exitX=1;exitY=0.5;exitDx=0;exitDy=0;entryX=0;entryY=0.5;entryDx=0;entryDy=0;" edge="1" parent="1" source="Hw7SRDfbB86I9_vCCGcW-90" target="Hw7SRDfbB86I9_vCCGcW-11">
          <mxGeometry width="100" height="100" relative="1" as="geometry">
            <mxPoint x="1971.0000000000005" y="135" as="sourcePoint" />
            <mxPoint x="1892" y="289.5" as="targetPoint" />
            <Array as="points">
              <mxPoint x="1980" y="214.5" />
              <mxPoint x="2041" y="205.5" />
            </Array>
          </mxGeometry>
        </mxCell>
        <mxCell id="qbWhs8wLItUreeIWNrHq-34" value="Данные пользователей" style="swimlane;fontStyle=0;childLayout=stackLayout;horizontal=1;startSize=26;fillColor=#1ba1e2;horizontalStack=0;resizeParent=1;resizeParentMax=0;resizeLast=0;collapsible=1;marginBottom=0;whiteSpace=wrap;html=1;fontColor=#ffffff;strokeColor=#006EAF;" vertex="1" parent="1">
          <mxGeometry x="1827" y="48" width="222" height="182" as="geometry" />
        </mxCell>
        <mxCell id="qbWhs8wLItUreeIWNrHq-35" value="# user_data_id: integer, NOT NULL" style="text;strokeColor=none;fillColor=none;align=left;verticalAlign=top;spacingLeft=4;spacingRight=4;overflow=hidden;rotatable=0;points=[[0,0.5],[1,0.5]];portConstraint=eastwest;whiteSpace=wrap;html=1;" vertex="1" parent="qbWhs8wLItUreeIWNrHq-34">
          <mxGeometry y="26" width="222" height="26" as="geometry" />
        </mxCell>
        <mxCell id="qbWhs8wLItUreeIWNrHq-36" value="name: text, NOT NULL" style="text;strokeColor=none;fillColor=none;align=left;verticalAlign=top;spacingLeft=4;spacingRight=4;overflow=hidden;rotatable=0;points=[[0,0.5],[1,0.5]];portConstraint=eastwest;whiteSpace=wrap;html=1;" vertex="1" parent="qbWhs8wLItUreeIWNrHq-34">
          <mxGeometry y="52" width="222" height="26" as="geometry" />
        </mxCell>
        <mxCell id="qbWhs8wLItUreeIWNrHq-37" value="passport_series: integer, NOT NULL" style="text;strokeColor=none;fillColor=none;align=left;verticalAlign=top;spacingLeft=4;spacingRight=4;overflow=hidden;rotatable=0;points=[[0,0.5],[1,0.5]];portConstraint=eastwest;whiteSpace=wrap;html=1;" vertex="1" parent="qbWhs8wLItUreeIWNrHq-34">
          <mxGeometry y="78" width="222" height="26" as="geometry" />
        </mxCell>
        <mxCell id="qbWhs8wLItUreeIWNrHq-38" value="passport_number: integer, NOT NULL" style="text;strokeColor=none;fillColor=none;align=left;verticalAlign=top;spacingLeft=4;spacingRight=4;overflow=hidden;rotatable=0;points=[[0,0.5],[1,0.5]];portConstraint=eastwest;whiteSpace=wrap;html=1;" vertex="1" parent="qbWhs8wLItUreeIWNrHq-34">
          <mxGeometry y="104" width="222" height="26" as="geometry" />
        </mxCell>
        <mxCell id="qbWhs8wLItUreeIWNrHq-41" value="adress_reg: text, NOT NULL" style="text;strokeColor=none;fillColor=none;align=left;verticalAlign=top;spacingLeft=4;spacingRight=4;overflow=hidden;rotatable=0;points=[[0,0.5],[1,0.5]];portConstraint=eastwest;whiteSpace=wrap;html=1;" vertex="1" parent="qbWhs8wLItUreeIWNrHq-34">
          <mxGeometry y="130" width="222" height="26" as="geometry" />
        </mxCell>
        <mxCell id="qbWhs8wLItUreeIWNrHq-42" value="birth_date: timestamptz" style="text;strokeColor=none;fillColor=none;align=left;verticalAlign=top;spacingLeft=4;spacingRight=4;overflow=hidden;rotatable=0;points=[[0,0.5],[1,0.5]];portConstraint=eastwest;whiteSpace=wrap;html=1;" vertex="1" parent="qbWhs8wLItUreeIWNrHq-34">
          <mxGeometry y="156" width="222" height="26" as="geometry" />
        </mxCell>
        <mxCell id="qbWhs8wLItUreeIWNrHq-40" value="" style="edgeStyle=entityRelationEdgeStyle;fontSize=12;html=1;endArrow=ERmandOne;startArrow=ERmandOne;rounded=1;entryX=1;entryY=0.5;entryDx=0;entryDy=0;fillColor=#1ba1e2;strokeColor=#006EAF;exitX=0;exitY=0.5;exitDx=0;exitDy=0;curved=0;" edge="1" parent="1" source="qbWhs8wLItUreeIWNrHq-35" target="Hw7SRDfbB86I9_vCCGcW-91">
          <mxGeometry width="100" height="100" relative="1" as="geometry">
            <mxPoint x="1674" y="244" as="sourcePoint" />
            <mxPoint x="1525" y="173" as="targetPoint" />
          </mxGeometry>
        </mxCell>
        <mxCell id="qbWhs8wLItUreeIWNrHq-43" value="3 форма" style="text;html=1;align=center;verticalAlign=middle;resizable=0;points=[];autosize=1;strokeColor=none;fillColor=none;" vertex="1" parent="1">
          <mxGeometry x="1827" y="22" width="66" height="26" as="geometry" />
        </mxCell>
      </root>
    </mxGraphModel>
  </diagram>
</mxfile>
